HIERARCHY
ROOT Hips
{
  OFFSET 5.84602e-005 68.8428 3.50346
  CHANNELS 6 Xposition Yposition Zposition Zrotation Xrotation Yrotation
  JOINT Spine
  {
    OFFSET 0 8.597 -4.6522
    CHANNELS 3 Zrotation Xrotation Yrotation
    JOINT Spine1
    {
      OFFSET 0 7.8454 0.4098
      CHANNELS 3 Zrotation Xrotation Yrotation
      JOINT Spine2
      {
        OFFSET 0 9.7078 -2.1609
        CHANNELS 3 Zrotation Xrotation Yrotation
        JOINT Neck
        {
          OFFSET 0 21.8761 -0.4549
          CHANNELS 3 Zrotation Xrotation Yrotation
          JOINT Head
          {
            OFFSET 0 12.3537 3.3602
            CHANNELS 3 Zrotation Xrotation Yrotation
            End Site
            {
              OFFSET 0.0001 18.9506 0.5657
            }
          }
        }
        JOINT LeftShoulder
        {
          OFFSET 2.2086 21.1115 7.2329
          CHANNELS 3 Zrotation Xrotation Yrotation
          JOINT LeftArm
          {
            OFFSET 13.1193 3.0282 -4.8998
            CHANNELS 3 Zrotation Xrotation Yrotation
            JOINT LeftForeArm
            {
              OFFSET 27.4081 -0.0973053 -0.2375
              CHANNELS 3 Zrotation Xrotation Yrotation
              JOINT LeftHand
              {
                OFFSET 22.8641 0.0662994 -0.1369
                CHANNELS 3 Zrotation Xrotation Yrotation
                JOINT LeftHandIndex1
                {
                  OFFSET 8.8614 0.775009 2.4612
                  CHANNELS 3 Zrotation Xrotation Yrotation
                  JOINT LeftHandIndex2
                  {
                    OFFSET 3.3146 -0.808304 0.5841
                    CHANNELS 3 Zrotation Xrotation Yrotation
                    JOINT LeftHandIndex3
                    {
                      OFFSET 2.2628 -0.552002 0.3989
                      CHANNELS 3 Zrotation Xrotation Yrotation
                      End Site
                      {
                        OFFSET 1.6102 -0.4807 0.2612
                      }
                    }
                  }
                }
                JOINT LeftHandMiddle1
                {
                  OFFSET 8.9937 0.895004 0.2143
                  CHANNELS 3 Zrotation Xrotation Yrotation
                  JOINT LeftHandMiddle2
                  {
                    OFFSET 4.0984 0.0113983 -0.0242
                    CHANNELS 3 Zrotation Xrotation Yrotation
                    JOINT LeftHandMiddle3
                    {
                      OFFSET 2.2716 0.00689697 -0.0138001
                      CHANNELS 3 Zrotation Xrotation Yrotation
                      End Site
                      {
                        OFFSET 2.0404 -0.1441 0.0027
                      }
                    }
                  }
                }
                JOINT LeftHandRing1
                {
                  OFFSET 8.5234 0.597198 -2.0164
                  CHANNELS 3 Zrotation Xrotation Yrotation
                  JOINT LeftHandRing2
                  {
                    OFFSET 3.7188 -0.188293 -0.2328
                    CHANNELS 3 Zrotation Xrotation Yrotation
                    JOINT LeftHandRing3
                    {
                      OFFSET 2.1191 -0.106598 -0.1332
                      CHANNELS 3 Zrotation Xrotation Yrotation
                      End Site
                      {
                        OFFSET 1.8737 -0.2304 -0.0886
                      }
                    }
                  }
                }
                JOINT LeftHandPinky1
                {
                  OFFSET 7.9094 -0.601089 -3.4825
                  CHANNELS 3 Zrotation Xrotation Yrotation
                  JOINT LeftHandPinky2
                  {
                    OFFSET 2.2874 -0.477005 -0.6314
                    CHANNELS 3 Zrotation Xrotation Yrotation
                    JOINT LeftHandPinky3
                    {
                      OFFSET 1.6774 -0.349396 -0.4633
                      CHANNELS 3 Zrotation Xrotation Yrotation
                      End Site
                      {
                        OFFSET 1.4888 -0.4091 -0.3416
                      }
                    }
                  }
                }
                JOINT LeftHandThumb1
                {
                  OFFSET 1.833 -1.3875 1.3896
                  CHANNELS 3 Zrotation Xrotation Yrotation
                  JOINT LeftHandThumb2
                  {
                    OFFSET 3.4129 -1.121 2.5732
                    CHANNELS 3 Zrotation Xrotation Yrotation
                    JOINT LeftHandThumb3
                    {
                      OFFSET 2.2474 -0.804199 1.6192
                      CHANNELS 3 Zrotation Xrotation Yrotation
                      End Site
                      {
                        OFFSET 1.6527 -0.5689 1.1317
                      }
                    }
                  }
                }
              }
            }
          }
        }
        JOINT RightShoulder
        {
          OFFSET -2.2086 21.1115 7.2329
          CHANNELS 3 Zrotation Xrotation Yrotation
          JOINT RightArm
          {
            OFFSET -13.1216 3.0287 -4.9007
            CHANNELS 3 Zrotation Xrotation Yrotation
            JOINT RightForeArm
            {
              OFFSET -27.4081 -0.0973053 -0.2375
              CHANNELS 3 Zrotation Xrotation Yrotation
              JOINT RightHand
              {
                OFFSET -22.8641 0.0664063 -0.1369
                CHANNELS 3 Zrotation Xrotation Yrotation
                JOINT RightHandIndex1
                {
                  OFFSET -8.8614 0.774994 2.4612
                  CHANNELS 3 Zrotation Xrotation Yrotation
                  JOINT RightHandIndex2
                  {
                    OFFSET -3.3146 -0.808304 0.5841
                    CHANNELS 3 Zrotation Xrotation Yrotation
                    JOINT RightHandIndex3
                    {
                      OFFSET -2.2628 -0.552002 0.3989
                      CHANNELS 3 Zrotation Xrotation Yrotation
                      End Site
                      {
                        OFFSET -1.6102 -0.4807 0.2612
                      }
                    }
                  }
                }
                JOINT RightHandMiddle1
                {
                  OFFSET -8.9937 0.894989 0.2143
                  CHANNELS 3 Zrotation Xrotation Yrotation
                  JOINT RightHandMiddle2
                  {
                    OFFSET -4.0984 0.0113983 -0.0242
                    CHANNELS 3 Zrotation Xrotation Yrotation
                    JOINT RightHandMiddle3
                    {
                      OFFSET -2.2716 0.00691223 -0.0138001
                      CHANNELS 3 Zrotation Xrotation Yrotation
                      End Site
                      {
                        OFFSET -2.0404 -0.1441 0.0027
                      }
                    }
                  }
                }
                JOINT RightHandRing1
                {
                  OFFSET -8.5234 0.597198 -2.0164
                  CHANNELS 3 Zrotation Xrotation Yrotation
                  JOINT RightHandRing2
                  {
                    OFFSET -3.7188 -0.188309 -0.2328
                    CHANNELS 3 Zrotation Xrotation Yrotation
                    JOINT RightHandRing3
                    {
                      OFFSET -2.1191 -0.106598 -0.1332
                      CHANNELS 3 Zrotation Xrotation Yrotation
                      End Site
                      {
                        OFFSET -1.8737 -0.2304 -0.0886
                      }
                    }
                  }
                }
                JOINT RightHandPinky1
                {
                  OFFSET -7.9094 -0.601105 -3.4825
                  CHANNELS 3 Zrotation Xrotation Yrotation
                  JOINT RightHandPinky2
                  {
                    OFFSET -2.2874 -0.477005 -0.6314
                    CHANNELS 3 Zrotation Xrotation Yrotation
                    JOINT RightHandPinky3
                    {
                      OFFSET -1.6774 -0.349396 -0.4633
                      CHANNELS 3 Zrotation Xrotation Yrotation
                      End Site
                      {
                        OFFSET -1.4888 -0.4091 -0.3416
                      }
                    }
                  }
                }
                JOINT RightHandThumb1
                {
                  OFFSET -1.833 -1.38751 1.3896
                  CHANNELS 3 Zrotation Xrotation Yrotation
                  JOINT RightHandThumb2
                  {
                    OFFSET -3.41299 -1.12099 2.5732
                    CHANNELS 3 Zrotation Xrotation Yrotation
                    JOINT RightHandThumb3
                    {
                      OFFSET -2.24741 -0.804108 1.6192
                      CHANNELS 3 Zrotation Xrotation Yrotation
                      End Site
                      {
                        OFFSET -1.6527 -0.5689 1.1317
                      }
                    }
                  }
                }
              }
            }
          }
        }
      }
    }
  }
  JOINT RightUpLeg
  {
    OFFSET -9.1966 3.8861 -0.7581
    CHANNELS 3 Zrotation Xrotation Yrotation
    JOINT RightLeg
    {
      OFFSET -0.7359 -41.0265 0
      CHANNELS 3 Zrotation Xrotation Yrotation
      JOINT RightFoot
      {
        OFFSET 0 -40.2855 0
        CHANNELS 3 Zrotation Xrotation Yrotation
        JOINT RightToeBase
        {
          OFFSET 0 -5.6122 11.7359
          CHANNELS 3 Zrotation Xrotation Yrotation
          End Site
          {
            OFFSET 0 0 7.8731
          }
        }
      }
    }
  }
  JOINT LeftUpLeg
  {
    OFFSET 9.1965 3.8864 -0.7581
    CHANNELS 3 Zrotation Xrotation Yrotation
    JOINT LeftLeg
    {
      OFFSET 0.7359 -41.0268 0
      CHANNELS 3 Zrotation Xrotation Yrotation
      JOINT LeftFoot
      {
        OFFSET 0 -40.2855 0
        CHANNELS 3 Zrotation Xrotation Yrotation
        JOINT LeftToeBase
        {
          OFFSET 0 -5.6122 11.7359
          CHANNELS 3 Zrotation Xrotation Yrotation
          End Site
          {
            OFFSET 0 0 7.8731
          }
        }
      }
    }
  }
}
MOTION
Frames:	4
Frame Time:	0.0333333
5.84602e-005 68.8428 3.50346 0 0 -0 0 0 -0 0 0 -0 0 0 -0 0 0 -0 0 0 -0 0 0 -0 0 0 -0 0 0 -0 0 0 -0 0 0 -0 0 0 -0 0 0 -0 0 0 -0 -0.0146107 -8.87603e-005 -2.63497e-007 2.99804e-018 -2.42657e-020 -1.42182e-022 0 0 -0 -0.0187562 -0.001176 5.858e-005 5.06224e-018 3.88251e-019 1.21329e-020 0 0 -0 -0.012269 -0.00324817 0.000675346 -1.74678e-018 3.88251e-019 -0 0 0 -0 0 0 -0 0 0 -0 0 0 -0 0 0 -0 0 0 -0 0 0 -0 0 0 -0 0 0 -0 0 0 -0 0 0 -0 0.0149955 -9.10982e-005 2.64101e-007 -9.69331e-018 1.21329e-020 -4.7394e-023 0 0 -0 0.0189956 -0.00119102 -5.96516e-005 -5.41541e-019 0 2.42657e-020 0 0 -0 0.0122698 -0.00324857 -0.000673756 -2.00796e-019 0 -1.94126e-019 0 0 -0 0 0 -0 0 0 -0 3.39842 1.33031 -0.0637918 -5.65207e-008 0.834868 -0.000436188 -3.39935 -2.16518 -0.0642563 -8.89002e-024 -1.18485e-023 -1.48106e-024 -3.39844 1.35642 0.0640283 -3.18788e-007 0.782166 -0.000588827 3.39931 -2.13858 0.0634662 1.1399e-023 0 -0 
-55.9529 21.2552 7.24169 -0 -69.6329 -0 -0.117982 2.48205 -0.0831097 -0.232684 4.96426 -0.161325 -0.232684 4.96425 -0.161326 -4.01729e-007 21.4793 3.33142e-006 -0.0260388 13.263 0.0110949 17.3363 0.215879 3.57244 23.8112 -1.23996 -0.141277 0.402764 -10.2474 -82.1807 -32.0209 -29.134 -17.3244 1.05264e-006 -1.18141e-006 4.93835e-007 -2.57545e-007 -4.46809e-006 1.80761e-006 1.05264e-006 -1.18141e-006 4.93835e-007 1.05264e-006 -1.18141e-006 4.93835e-007 -0.0145608 -9.07162e-005 -2.893e-006 1.90692e-006 -1.77441e-006 1.46245e-007 1.05264e-006 -1.18141e-006 4.93835e-007 -0.0187979 -0.00118195 4.89186e-005 1.98086e-007 -5.88656e-007 8.41104e-007 1.05264e-006 -1.18141e-006 4.93835e-007 -0.0122833 -0.00324904 0.000686402 1.05269e-006 -1.18146e-006 4.93676e-007 1.05264e-006 -1.18141e-006 4.93835e-007 -2.57545e-007 -4.46809e-006 1.80761e-006 1.05264e-006 -1.18141e-006 4.93835e-007 -17.3281 0.22 -3.58492 -23.8367 -1.24459 0.118935 -0.392799 -10.1886 82.1276 31.9997 -29.1693 17.2646 -5.51738e-032 3.97569e-015 7.95139e-016 -8.82781e-032 3.18055e-015 1.59028e-015 3.18055e-015 3.18055e-015 -0 -5.51738e-032 3.97569e-015 7.95139e-016 0.0149952 -9.09402e-005 4.40801e-006 3.97252e-031 1.43125e-014 -1.59028e-015 -5.51738e-032 3.97569e-015 7.95139e-016 0.0190437 -0.00119925 -5.84883e-005 6.36111e-015 7.95139e-016 7.95139e-016 -5.51738e-032 3.97569e-015 7.95139e-016 0.0123779 -0.0032774 -0.000688065 3.31043e-032 -7.95139e-016 2.38542e-015 -5.51738e-032 3.97569e-015 7.95139e-016 -8.82781e-032 3.18055e-015 1.59028e-015 3.18055e-015 3.18055e-015 -0 -14.7624 -20.7336 -12.6968 38.9213 81.3348 -44.2957 0.590904 6.4939 3.31402 1.59028e-015 7.95139e-016 4.77083e-015 14.0024 -28.7812 13.6338 164.36 78.4529 -166.274 16.3169 1.23913 8.19889 3.18465e-008 2.10031e-007 -1.98774e-008 
-81.1881 0.026726 5.51624 -180 -79.0323 -180 -0.170875 3.57923 -0.130305 -0.334558 7.15897 -0.250626 -0.334558 7.15898 -0.250626 3.4443e-007 31.1449 2.10118e-006 0.095676 19.5736 -0.0399072 24.9769 0.410296 5.07508 34.7033 -1.833 -0.106613 0.607554 21.1572 -95.9047 -53.5524 -40.396 -28.7497 -2.90486e-008 8.8378e-007 1.8805e-006 -6.36111e-015 0 -1.59028e-015 -9.54166e-015 4.77083e-015 1.59028e-015 -2.90486e-008 8.8378e-007 1.8805e-006 -0.014605 -8.79316e-005 -2.05518e-006 9.54166e-015 -1.59028e-015 6.36111e-015 -2.90486e-008 8.8378e-007 1.8805e-006 -0.0187566 -0.0011757 5.33689e-005 -1.27222e-014 0 -3.18055e-015 -2.90486e-008 8.8378e-007 1.8805e-006 -0.012258 -0.00324327 0.000684884 -3.18055e-015 -1.59028e-015 1.59028e-015 -2.90486e-008 8.8378e-007 1.8805e-006 -6.36111e-015 0 -1.59028e-015 -9.54166e-015 4.77083e-015 1.59028e-015 -25.0194 0.399025 -5.04398 -34.6268 -1.81311 0.172266 -0.561251 21.2239 95.3916 53.6279 -40.2525 28.9373 -7.73172e-007 1.17946e-006 -7.16503e-006 -5.07399e-007 -1.1332e-006 1.39186e-006 -7.73172e-007 1.17946e-006 -7.16503e-006 -7.73172e-007 1.17946e-006 -7.16503e-006 0.0150036 -9.12956e-005 -4.98547e-006 -1.28011e-006 4.54976e-008 -5.77318e-006 -7.73172e-007 1.17946e-006 -7.16503e-006 0.0189887 -0.00119276 -6.53149e-005 -7.75242e-007 1.17839e-006 -7.16521e-006 -7.73172e-007 1.17946e-006 -7.16503e-006 0.0122923 -0.00325261 -0.000676641 -1.28036e-006 4.55295e-008 -5.77316e-006 -7.73172e-007 1.17946e-006 -7.16503e-006 -5.07399e-007 -1.1332e-006 1.39186e-006 -7.73172e-007 1.17946e-006 -7.16503e-006 -25.0579 -29.6024 -20.379 161.495 59.0851 -167.281 2.78332 10.1311 4.18249 1.19271e-014 0 -0 26.1891 -40.637 25.5832 171.656 33.9543 -170.567 21.4925 3.55664 13.3549 1.19271e-015 -2.38542e-015 -1.27222e-014 
-75.5748 4.84153 6.07205 -180 -85.9956 -180 -0.176217 3.29222 -0.123929 -0.346145 6.58477 -0.238287 -0.346145 6.58479 -0.238287 -6.99763e-006 28.9974 8.77098e-006 0.367165 18.9319 -0.154124 22.9442 0.585177 4.50804 32.6807 -1.77889 0.104198 0.0904853 13.1513 -95.8998 -48.0884 -38.8176 -25.0136 -1.33028e-006 -9.61297e-007 4.09076e-007 6.36111e-015 0 1.59028e-015 -1.33028e-006 -9.61297e-007 4.09076e-007 -1.33028e-006 -9.61297e-007 4.09076e-007 -0.0145801 -9.0106e-005 8.10681e-007 -1.3303e-006 -9.6135e-007 4.08955e-007 -1.33028e-006 -9.61297e-007 4.09076e-007 -0.0187374 -0.00117534 7.38549e-005 -1.33031e-006 -9.61366e-007 4.08933e-007 -1.33028e-006 -9.61297e-007 4.09076e-007 -0.0122262 -0.00324137 0.000663615 -1.33029e-006 -9.6134e-007 4.09013e-007 -1.33028e-006 -9.61297e-007 4.09076e-007 6.36111e-015 0 1.59028e-015 -1.33028e-006 -9.61297e-007 4.09076e-007 -23.0969 0.539028 -4.37714 -32.374 -1.70551 0.160018 -0.128397 13.3771 94.6623 48.4005 -38.2833 25.7711 4.41391e-032 -1.59028e-015 1.59028e-015 -3.18055e-015 -1.59028e-015 -1.59028e-015 -3.18055e-015 -1.59028e-015 3.18055e-015 4.41391e-032 -1.59028e-015 1.59028e-015 0.0149811 -9.11245e-005 -4.63458e-006 -3.18055e-015 0 6.36111e-015 4.41391e-032 -1.59028e-015 1.59028e-015 0.0189933 -0.0011932 -6.27616e-005 6.36111e-015 4.77083e-015 1.59028e-015 4.41391e-032 -1.59028e-015 1.59028e-015 0.0122653 -0.003248 -0.000681812 1.32417e-031 -1.59028e-015 4.77083e-015 4.41391e-032 -1.59028e-015 1.59028e-015 -3.18055e-015 -1.59028e-015 -1.59028e-015 -3.18055e-015 -1.59028e-015 3.18055e-015 -22.0317 -27.9208 -17.7042 157.229 66.9169 -162.979 2.94875 9.46102 3.6345 -1.21449e-007 6.15439e-007 -1.03101e-006 22.5877 -38.2081 21.552 171.183 43.9354 -171.363 19.9273 3.01142 12.1707 -9.83675e-007 -1.20371e-007 1.66955e-006 
